PathFileType	4	(X/Y/Z)	D:\TRACE\spot_10-12-23\spot_arm_body_motion_1_5-platform.trc
DataRate	CameraRate	NumFrames	NumMarkers	Units	OrigDataRate	OrigDataStartFrame	OrigNumFrames
100.00	100.00	      60	5	mm	100.00	1751	      7000
Frame#	Time	Left_Front			Right_Front			Left_Aft			Right_Aft			Post			
		X1	Y1	Z1	X2	Y2	Z2	X3	Y3	Z3	X4	Y4	Z4	X5	Y5	Z5	

1751	17.500	-754.26971	-15.87721	-657.27728	812.70782	-17.11217	-632.82520	-687.03809	30.27712	480.45035	721.21393	31.62221	582.25104	33.51961	699.16376	-996.95276	
1752	17.510	-753.64166	-15.70915	-657.11932	813.57880	-17.01824	-632.73029	-686.26495	30.24618	480.43970	722.23523	31.57894	582.11774	34.40028	699.29285	-996.87036	
1753	17.520	-752.90576	-15.42059	-657.08411	814.55310	-17.01755	-632.71301	-685.45221	30.08375	480.46164	722.97485	31.51057	582.33575	34.93267	699.22430	-996.95569	
1754	17.530	-751.73114	-15.70675	-657.56976	815.47925	-16.77612	-632.65039	-684.52618	29.99976	480.45697	723.68073	31.39392	582.45471	36.09671	699.55243	-997.17041	
1755	17.540	-751.03796	-15.40353	-657.20972	816.25208	-16.69967	-632.58136	-683.81995	30.02858	480.53589	724.61194	31.29673	582.45502	36.96231	699.83972	-997.14929	
1756	17.550	-750.21692	-15.27509	-657.02399	817.08691	-16.63590	-632.54224	-682.97986	29.98664	480.60690	725.53430	31.28612	582.47162	37.57565	700.00446	-997.06061	
1757	17.560	-749.53937	-14.79493	-656.99023	817.74921	-16.54056	-632.56360	-682.08386	29.92242	480.66623	726.22095	31.28551	582.48749	38.42444	700.13153	-996.65375	
1758	17.570	-748.74591	-14.57693	-657.11145	818.50592	-16.41855	-632.56116	-681.36096	29.83802	480.61871	727.01306	31.14354	582.42206	39.25793	700.31207	-996.42700	
1759	17.580	-747.91376	-14.92813	-657.08667	819.36346	-16.56131	-632.56366	-680.53857	29.86851	480.61401	727.93109	31.09377	582.40289	40.01516	700.62585	-996.12689	
1760	17.590	-747.11249	-15.24123	-656.94177	820.16821	-16.51516	-632.52325	-679.94934	29.84095	480.74365	728.66162	31.02416	582.39215	40.72334	700.63892	-995.66400	
1761	17.600	-746.39282	-14.91635	-656.84753	820.91876	-16.27478	-632.50537	-679.06293	29.61850	480.67670	729.25232	30.93401	582.62463	41.42366	700.62189	-995.24622	
1762	17.610	-745.73499	-14.45287	-656.85901	821.68018	-16.06928	-632.43518	-678.27576	29.48015	480.70398	729.92773	30.81435	582.73944	42.18143	700.88928	-995.01733	
1763	17.620	-744.93719	-14.31278	-657.07611	822.49487	-15.94994	-632.32202	-677.44592	29.45842	480.83527	730.82153	30.76671	582.74969	43.01653	701.15314	-994.78406	
1764	17.630	-744.33179	-14.03692	-656.92871	823.16974	-15.97070	-632.29047	-677.03937	29.42687	480.91315	731.64386	30.74994	582.72260	43.67204	701.38232	-994.58612	
1765	17.640	-743.56934	-14.13942	-656.91473	823.80133	-15.85922	-632.36267	-676.25488	29.36981	480.83777	732.32825	30.65552	582.81158	44.41333	701.50580	-994.28638	
1766	17.650	-742.74268	-14.09637	-656.76721	824.40631	-15.71623	-632.38318	-675.47839	29.19763	480.92758	732.88208	30.51238	582.80371	45.19467	701.64423	-994.14648	
1767	17.660	-741.79797	-14.10431	-656.99005	825.13696	-15.52440	-632.29724	-674.83539	29.03065	481.03870	733.69867	30.39481	582.86298	45.91735	701.85382	-994.17487	
1768	17.670	-741.50604	-13.59939	-656.75043	825.86761	-15.26403	-632.19489	-674.35260	28.93257	481.17947	734.39825	30.27369	582.81311	46.50222	702.15704	-994.27832	
1769	17.680	-741.02386	-13.26371	-656.64471	826.49939	-14.88902	-632.20746	-673.47015	28.93033	481.12259	734.93689	30.23380	582.91180	46.94485	702.52075	-994.30902	
1770	17.690	-740.42938	-13.13142	-656.64728	827.05835	-14.65443	-632.16492	-672.95190	28.76701	481.27240	735.39032	30.11842	582.98413	47.47429	702.79724	-994.06873	
1771	17.700	-739.86328	-12.95328	-656.67297	827.63568	-14.60184	-632.14166	-672.25183	28.55172	481.18741	736.00458	29.85286	583.05505	48.10017	703.10474	-993.84546	
1772	17.710	-738.97308	-13.28184	-656.43042	828.24750	-14.58709	-632.03552	-671.80328	28.35159	481.20111	736.71381	29.56774	583.12445	48.67717	703.32452	-993.61896	
1773	17.720	-738.40094	-13.02905	-656.42108	828.88458	-14.42945	-632.00262	-671.15784	28.29231	481.30783	737.32074	29.46295	583.24567	49.19603	703.54010	-993.42047	
1774	17.730	-737.93726	-12.69889	-656.34692	829.36359	-14.13322	-631.96338	-670.53833	28.30650	481.44781	737.82733	29.42398	583.13318	49.74958	703.77692	-993.16193	
1775	17.740	-737.43524	-12.35787	-656.38116	829.88470	-13.83532	-631.91272	-670.00409	28.29108	481.48303	738.22925	29.36756	583.43018	50.36743	704.04059	-992.75970	
1776	17.750	-736.99963	-12.19847	-656.41559	830.31494	-13.67678	-631.85938	-669.66376	28.05811	481.55072	738.70331	29.08535	583.57526	50.86993	704.36652	-992.29150	
1777	17.760	-736.63409	-12.12834	-656.46741	830.76215	-13.59141	-631.81036	-669.08118	27.84625	481.62555	739.27710	28.76399	583.33087	51.30620	704.69934	-991.83704	
1778	17.770	-736.01416	-11.98255	-656.35974	831.22516	-13.36316	-631.80298	-668.74677	27.59856	481.67178	739.99127	28.61125	583.39569	51.56446	705.05499	-991.59717	
1779	17.780	-735.49915	-11.74930	-656.25153	831.75928	-13.07086	-631.79993	-668.37213	27.47784	481.75745	740.17773	28.58532	583.62561	52.04912	705.39270	-991.29541	
1780	17.790	-735.10919	-11.42490	-656.16650	832.04962	-12.81910	-631.86188	-667.81927	27.40364	481.77917	740.62079	28.53119	583.67749	52.52988	705.71924	-991.02112	
1781	17.800	-734.78326	-11.21588	-656.03888	832.32727	-12.65480	-631.81750	-667.46130	27.17911	481.81674	740.95166	28.30230	583.73895	53.00004	706.03015	-990.70599	
1782	17.810	-734.53485	-11.10937	-655.98779	832.73615	-12.50013	-631.63892	-667.23572	26.96508	481.85971	741.21985	27.98612	583.77191	53.44617	706.38623	-990.35590	
1783	17.820	-734.18549	-10.94367	-655.92468	833.17035	-12.30382	-631.51483	-666.85413	26.74713	481.97040	741.54187	27.69328	583.56158	53.61176	706.87189	-990.30115	
1784	17.830	-733.89404	-10.41332	-655.87555	833.51135	-11.87502	-631.34790	-666.50677	26.57317	482.11899	741.84833	27.48742	583.60260	53.92031	707.04376	-990.09015	
1785	17.840	-733.72583	-9.77921	-655.81952	833.82758	-11.52057	-631.27472	-666.21777	26.54604	482.19934	742.07861	27.41921	583.87463	54.24969	707.62042	-989.79041	
1786	17.850	-733.53418	-9.58552	-655.73566	834.06879	-11.30864	-631.27808	-666.14508	26.44093	482.31241	742.32568	27.28121	583.93408	54.36924	708.12836	-989.59753	
1787	17.860	-733.37848	-9.52066	-655.71863	834.22705	-11.21937	-631.24475	-666.03131	26.29060	482.34970	742.52759	27.02424	583.76062	54.46258	708.39545	-989.41101	
1788	17.870	-733.08337	-9.51991	-655.83704	834.29382	-11.04948	-631.23218	-665.76080	26.08318	482.32013	742.73297	26.79978	583.83307	54.81783	708.44098	-989.05615	
1789	17.880	-733.14825	-9.17431	-655.70459	834.35541	-10.80963	-631.18719	-665.64075	25.93718	482.35825	742.86420	26.63599	583.92767	55.17201	708.79761	-988.55188	
1790	17.890	-732.97260	-8.93013	-655.72803	834.47046	-10.59140	-631.15808	-665.48309	25.85396	482.40543	742.91785	26.53763	584.00458	55.17582	709.05127	-988.26593	
1791	17.900	-732.85236	-8.76126	-655.72449	834.57556	-10.32853	-631.09039	-665.37323	25.68260	482.48624	743.00793	26.38270	584.03760	55.16360	709.54590	-987.90582	
1792	17.910	-732.75171	-8.66211	-655.69830	834.63617	-10.09230	-631.04810	-665.32550	25.52620	482.53134	742.99243	26.20951	584.09344	55.27944	709.86395	-987.51355	
1793	17.920	-732.73785	-8.46254	-655.57263	834.63080	-9.95227	-631.06104	-665.30103	25.23537	482.58331	743.07098	26.07805	584.45081	91.19117	647.11633	-983.68793	
1794	17.930	-732.57526	-8.32272	-655.53558	834.62927	-9.82008	-631.06238	-665.29980	25.04912	482.63504	743.06726	25.90428	584.44312	55.48952	710.28400	-986.94958	
1795	17.940	-732.48041	-8.08667	-655.41602	834.68787	-9.54662	-631.01239	-665.24359	24.92362	482.70218	743.09167	25.74607	584.48669	55.26354	710.67517	-986.74933	
1796	17.950	-732.46515	-7.84955	-655.31885	834.68945	-9.10597	-630.93921	-665.16949	24.84374	482.77628	743.15570	25.69755	584.60907	55.21149	711.12988	-986.62238	
1797	17.960	-732.22076	-7.75227	-655.64136	834.51532	-8.97497	-630.86591	-665.16321	24.75702	482.83246	743.11011	25.59168	584.64996	55.20169	711.71063	-986.45953	
1798	17.970	-732.65137	-7.25597	-655.31091	834.71313	-8.51722	-630.80884	-665.25562	24.61767	482.86307	743.11865	25.24735	584.68848	55.25604	711.93237	-986.31317	
1799	17.980	-732.74762	-6.97300	-655.28766	834.70190	-8.38669	-630.75037	-665.33618	24.42822	482.91644	743.05408	24.74903	584.76324	55.23492	712.36926	-985.99493	
1800	17.990	-732.86011	-6.59842	-655.18762	834.77350	-8.15109	-630.67822	-665.31207	24.17348	483.02933	743.09186	24.38478	584.92822	55.22046	712.91254	-985.57098	
1801	18.000	-732.88171	-6.13673	-655.11127	834.75885	-7.78177	-630.56073	-665.25781	24.03152	483.14981	743.07330	24.23771	585.00934	55.29366	713.40204	-985.12103	
1802	18.010	-732.85760	-5.69979	-655.00940	834.63135	-7.39070	-630.48810	-665.27472	23.90098	483.23911	742.98486	24.13248	585.13379	55.31697	713.87823	-984.62756	
1803	18.020	-732.93066	-5.41591	-654.91370	834.43481	-7.14122	-630.44562	-665.41620	23.65123	483.31458	742.79663	23.82069	585.18579	55.21139	714.27051	-984.14044	
1804	18.030	-733.15094	-5.29258	-654.83856	834.17267	-6.99060	-630.40601	-665.68066	23.26165	483.37152	742.59180	23.53737	585.21429	55.00094	714.67596	-983.74133	
1805	18.040	-733.33472	-5.13570	-654.74567	833.93732	-6.76319	-630.35077	-665.98596	22.97174	483.42355	742.41974	23.35479	585.24744	54.48763	715.18976	-983.04828	
1806	18.050	-733.52783	-4.82369	-654.69977	833.71307	-6.37790	-630.30096	-666.26038	22.70561	483.56659	742.20831	23.17724	585.31531	92.19942	667.97058	-990.27814	
1807	18.060	-733.64203	-4.41474	-654.72485	833.47205	-5.94558	-630.27563	-666.38354	22.66661	483.59000	742.02460	23.06875	585.39282	104.83911	652.14539	-992.48114	
1808	18.070	-733.81537	-4.23598	-654.72131	833.31708	-5.68520	-630.21417	-666.64484	22.53595	483.63071	741.83832	22.88907	585.53271	53.61073	716.40607	-981.54749	
1809	18.080	-734.32947	-4.03282	-654.57751	833.02570	-5.48570	-630.10559	-666.96143	22.37184	483.61795	741.47070	22.50380	585.64417	53.99569	716.93835	-981.06378	
1810	18.090	-734.56720	-3.89395	-654.54169	832.78363	-5.35810	-630.08630	-667.34833	22.17408	483.59906	741.16815	22.26421	585.55835	53.92407	717.14307	-980.86255	
